<?xml version="1.0" encoding="utf-8"?>
<!-- Generator: Adobe Illustrator 16.0.2, SVG Export Plug-In . SVG Version: 6.00 Build 0)  -->
<!DOCTYPE svg PUBLIC "-//W3C//DTD SVG 1.1//EN" "http://www.w3.org/Graphics/SVG/1.1/DTD/svg11.dtd">
<svg version="1.1" id="Layer_1" xmlns="http://www.w3.org/2000/svg" xmlns:xlink="http://www.w3.org/1999/xlink" x="0px" y="0px"
	 width="168px" height="46px" viewBox="0 0 168 46" enable-background="new 0 0 168 46" xml:space="preserve">
<g>
	<path fill-rule="evenodd" clip-rule="evenodd" fill="#2A7AE4" d="M15.7,10.6c-0.034-1.567-0.383-2.65-1.05-3.25
		c-0.733-0.633-1.717-0.934-2.95-0.9c-1.3,0.033-2.617,0.066-3.95,0.1c0.067,10.6,0.133,21.184,0.2,31.75
		c1.333-0.166,2.683-0.333,4.05-0.5c1.2-0.1,2.167-0.533,2.9-1.3c0.7-0.733,1.05-1.85,1.05-3.35
		C15.85,25.65,15.767,18.133,15.7,10.6z M36.4,6.05c0.033,3.633,0.067,7.25,0.1,10.85c3.533-0.1,7.067-0.2,10.6-0.3
		c0,1.933,0.017,3.85,0.05,5.75c-3.533,0.133-7.05,0.283-10.55,0.45c0.033,4.2,0.083,8.417,0.15,12.65
		c4.4-0.334,8.817-0.617,13.25-0.851c0,1.867,0.017,3.784,0.05,5.75c-6.933,0.434-13.917,1-20.95,1.7
		c-0.167-13.967-0.333-27.9-0.5-41.8c7.033,0,14.066-0.017,21.1-0.05c0,1.9,0.017,3.8,0.05,5.7C45.283,5.967,40.833,6.017,36.4,6.05
		z M0,0.25c3.9-0.033,7.833-0.033,11.8,0c3.867,0,6.767,0.883,8.7,2.65c1.933,1.8,2.917,4.383,2.95,7.75
		c0.1,7.167,0.183,14.333,0.25,21.5c0.066,3.366-0.85,6.066-2.75,8.1c-1.9,1.967-4.833,3.25-8.8,3.85
		C8.117,44.634,4.067,45.217,0,45.85C0,30.65,0,15.45,0,0.25z M70.25,0.25c2.367,0,4.733,0,7.1,0c-2.5,13-4.967,26.083-7.4,39.25
		c-3.4,0.066-6.784,0.184-10.15,0.35c-2.533-13.1-5.1-26.3-7.7-39.6c2.6,0,5.217,0,7.85,0c1.733,10.167,3.466,20.333,5.2,30.5
		c0.033,0,0.083,0,0.15,0C66.933,20.517,68.583,10.35,70.25,0.25z M81.05,0.25c6.834,0,13.684,0,20.55,0
		c-0.033,1.833-0.05,3.7-0.05,5.6C97.316,5.817,93.066,5.8,88.8,5.8c0,3.6,0,7.217,0,10.85c3.334,0.033,6.65,0.067,9.95,0.1
		c0,1.867,0,3.733,0,5.6c-3.333-0.033-6.65-0.067-9.95-0.1c0,5.667,0,11.366,0,17.1c-2.566-0.033-5.15-0.05-7.75-0.05
		C81.05,26.267,81.05,13.25,81.05,0.25z M105.3,0.25c2.566,0,5.15-0.017,7.75-0.05c-0.133,11.367-0.267,22.75-0.399,34.149
		c4.166,0.2,8.35,0.45,12.55,0.75c-0.033,1.9-0.066,3.834-0.101,5.801c-6.699-0.567-13.383-0.967-20.05-1.2
		C105.116,26.533,105.2,13.383,105.3,0.25z M141.35,0.25c2.733,0,5.467,0,8.2,0c1.667,4.567,3.334,9.25,5,14.05
		c0.033,0,0.066,0,0.101,0c1.866-4.633,3.733-9.316,5.6-14.05c2.434,0,4.866-0.017,7.3-0.05c-2.833,7.433-5.75,14.65-8.75,21.65
		c2.934,7.733,6,15.733,9.2,24c-2.934-0.433-5.8-0.833-8.6-1.199C157.467,39.15,155.6,33.8,153.8,28.6c-0.066,0-0.116,0-0.149,0
		c-2.067,4.867-4.117,9.7-6.15,14.5c-2.467-0.3-4.917-0.566-7.35-0.8c3.1-6.866,6.216-13.883,9.35-21.05
		C146.767,14.083,144.05,7.083,141.35,0.25z M129.5,0.25c2.566,0,5.15,0,7.75,0c-0.3,13.867-0.566,27.75-0.8,41.65
		c-2.601-0.233-5.167-0.467-7.7-0.7C128.983,27.533,129.233,13.883,129.5,0.25z"/>
</g>
</svg>
