<?xml version="1.0" encoding="utf-8"?>
<!-- Generator: Adobe Illustrator 16.0.2, SVG Export Plug-In . SVG Version: 6.00 Build 0)  -->
<!DOCTYPE svg PUBLIC "-//W3C//DTD SVG 1.1//EN" "http://www.w3.org/Graphics/SVG/1.1/DTD/svg11.dtd">
<svg version="1.1" xmlns="http://www.w3.org/2000/svg" xmlns:xlink="http://www.w3.org/1999/xlink" x="0px" y="0px" width="35px"
	 height="35px" viewBox="0 0 512 512" enable-background="new 0 0 35 35" xml:space="preserve">
<g id="Layer_1">
</g>
<g id="svg2">
	<path fill-rule="evenodd" clip-rule="evenodd" fill="#1A64C8" d="M266.7,618.3c-2.233-6.3-3.4-9.583-3.5-9.85l-0.4-1.15h0.101
		l0.399,1.15c0.066,0.233,1.217,3.517,3.45,9.85c3.9,11,6.5,18.334,7.8,22c1.5,4.267,2.334,6.617,2.5,7.05v0.25
		c-0.855-2.391-1.722-4.823-2.6-7.3C273.85,638.533,271.267,631.2,266.7,618.3z M201.5,607.35v-0.05l2.15,0.025L201.5,607.35z"/>
</g>
<g id="Layer_1_1_">
	<g>
		<polygon fill-rule="evenodd" clip-rule="evenodd" fill="#1A64C8" points="220.754,98.939 220.754,413.138 151.75,476.005 
			151.75,36 		"/>
	</g>
	<g>
		<path fill-rule="evenodd" clip-rule="evenodd" fill="#2A7AE4" d="M334.75,63.9c17,18.633,25.5,45.533,25.5,80.7v222.8
			c0,35.166-8.5,62.066-25.5,80.699c-17.134,18.4-42.967,27.7-77.5,27.9h-105.5l69-62.85h35.2c11.1,0.166,19.783-3.017,26.05-9.551
			c6.167-6.566,9.25-17.616,9.25-33.149v-228.9c0-15.533-3.083-26.566-9.25-33.1c-6.267-6.567-14.95-9.733-26.05-9.5h-35.2
			l-69-62.95h105.5C291.783,36.233,317.616,45.533,334.75,63.9z"/>
	</g>
</g>
</svg>
